<svg xmlns="http://www.w3.org/2000/svg" width="100" height="100" viewBox="0 0 100 100"><defs><style>.a{fill:none;}.b{fill:#ff7373;}.b,.c{stroke:#232323;stroke-linecap:round;stroke-linejoin:round;stroke-width:3px;}.c{fill:#fff;}</style></defs><g transform="translate(-110 -420)"><rect class="a" width="100" height="100" transform="translate(110 420)"/><g transform="translate(126.231 433.92)"><path class="b" d="M262.493,195.841c-12.061,0-17.857,12.462-17.857,12.462s-5.795-12.462-17.856-12.462-21.772,17.856-11.12,29.6,28.976,28.037,28.976,28.037,13.413-11.922,23.957-22.723c1.781-1.824,3.481-3.617,5.02-5.314a17.679,17.679,0,0,0,3.487-5.637C281.288,208.726,272.738,195.841,262.493,195.841Z" transform="translate(-211.086 -195.841)"/><path class="c" d="M239.911,220.468H257.1L247.086,240.2h14.426L241.7,268.231l4.261-20.854h-14.65Z" transform="translate(-212.862 -198.004)"/></g></g></svg>