<svg xmlns="http://www.w3.org/2000/svg" width="100" height="100" viewBox="0 0 100 100"><defs><style>.a,.c{fill:#fff;}.b{fill:#ff7373;}.b,.c{stroke:#232323;stroke-linecap:round;stroke-linejoin:round;stroke-width:3px;}</style></defs><g transform="translate(-110 -180)"><rect class="a" width="100" height="100" transform="translate(110 180)"/><g transform="translate(126 193)"><path class="b" d="M109.826,195.841c-12.061,0-17.856,12.462-17.856,12.462s-5.795-12.462-17.856-12.462-21.772,17.856-11.121,29.6S91.97,253.481,91.97,253.481s13.412-11.922,23.957-22.723c1.781-1.824,3.48-3.617,5.02-5.314a17.676,17.676,0,0,0,3.486-5.637C128.621,208.726,120.071,195.841,109.826,195.841Z" transform="translate(-58.419 -195.841)"/><path class="c" d="M79.692,257.182l-3.2,3.379a3.306,3.306,0,0,0,.05,4.6l5.613,5.676a3.3,3.3,0,0,0,4.688.014l8.222-8.222" transform="translate(-59.927 -201.229)"/><path class="c" d="M108.806,253.352l9.508-9.622s1.864-2.452.254-4.091c-1.982-2.016-3.768-.864-4.69,0s-6.164,6.049-6.164,6.049" transform="translate(-62.749 -199.589)"/><path class="c" d="M98.711,235.778l5.905-5.85a2.878,2.878,0,0,1,3.86-.288,3.279,3.279,0,0,1,.441,4.363c-.9.955-5.322,5.317-6.248,6.25" transform="translate(-61.958 -198.753)"/><path class="c" d="M113.607,239.029s5.128-3.687,2.248-6.568-6.868,2.24-6.868,2.24l-4.347,4.347,2.4,6.318Z" transform="translate(-62.479 -198.98)"/><path class="c" d="M85.912,235.382l-7.375-7.559s-3.3-3.119-5.377-1.2A3.459,3.459,0,0,0,72.7,231l8.758,8.757s-4.84-4.993-5.761-5.685-2.8-2.573-4.84-.537.538,4.686.538,4.686l9.218,9.449c-2-2.305-3.8-2.958-5.455-1.306s0,4.149,0,4.149l8.681,7.989c5.377,3.765,11.6,1.614,11.6,1.614l8.149,7.911a3.288,3.288,0,0,0,4.665-.085l6.008-6.27a3.288,3.288,0,0,0-.049-4.6l-7.557-7.557s.691-9.295-4.148-14.6-9.68-9.987-9.68-9.987-2.535-2.228-4.378-.461a3.268,3.268,0,0,0-.231,4.609c.691.922,5.063,5.377,5.063,5.377l-8.9-9.372s-2.516-2.516-4.609-.691c-2.054,1.79-.3,4.375-.3,4.375" transform="translate(-59.443 -198.291)"/></g></g></svg>