<svg xmlns="http://www.w3.org/2000/svg" width="26" height="26" viewBox="0 0 26 26"><defs><style>.a{fill:none;}.b{fill:#757575;}</style></defs><g transform="translate(-51 -470)"><rect class="a" width="26" height="26" transform="translate(51 470)"/><path class="b" d="M-870.235,1357.549c.417,7.633-4.249,10.234-8.789,10.443a8.71,8.71,0,0,1-8.622-9.94c.667-5.956,5.268-8.053,9.164-8.053a7.725,7.725,0,0,1,5.79,2.265l-2.666,2.6a5.925,5.925,0,0,0-3.666-1.048,5.1,5.1,0,0,0-4.915,4.949,5.272,5.272,0,0,0,4.915,5.662c2.833,0,4.749-1.552,5.248-3.565,0-.042-4.915,0-4.915,0v-3.313Z" transform="translate(942.709 -876)"/></g></svg>