<svg xmlns="http://www.w3.org/2000/svg" width="88" height="88" viewBox="0 0 88 88"><defs><style>.a{fill:#fff;}.b,.c{fill:none;}.b,.d{stroke:#232323;}.b,.c,.d{stroke-linecap:round;stroke-linejoin:round;stroke-width:3px;}.c{stroke:#fff;}.d{fill:#ff7373;}.e{fill:#232323;}</style></defs><g transform="translate(-191 -356)"><rect class="a" width="88" height="88" transform="translate(191 356)"/><g transform="translate(-13 -1448.609)"><g transform="translate(12.167 1449.159)"><line class="b" x2="8.197" transform="translate(219.95 392.239)"/><line class="b" x2="10.875" transform="translate(219.95 403.322)"/><line class="b" x2="21.75" transform="translate(219.95 414.406)"/><path class="b" d="M254.95,412.355v14.718h-42V371.406h42V384.75"/><path class="c" d="M258.62,384a13.478,13.478,0,0,0-11.008,6.078,13.409,13.409,0,0,0-10.92-5.52c-6.243,0-13.315,10.293-6.8,17.751s17.722,17.8,17.722,17.8,8.2-7.569,14.651-14.427c1.09-1.158,2.129-2.3,3.07-3.374a11.286,11.286,0,0,0,2.133-3.579C270.027,391.7,264.885,384,258.62,384Z"/><line class="b" x2="27.667" transform="translate(219.95 381.156)"/><path class="d" d="M257.116,386.489c-6.416,0-9.5,5.5-9.5,5.5s-3.083-5.5-9.5-5.5-11.583,9.5-5.916,15.75,15.416,14.917,15.416,14.917,7.136-6.343,12.746-12.09c.948-.97,1.852-1.924,2.671-2.827a9.416,9.416,0,0,0,1.855-3C267.116,393.345,262.567,386.489,257.116,386.489Z"/><path class="b" d="M239.2,402.739h5.583l2.5-4,4.25,8.5,2.667-4.75h15"/><rect class="e" width="20.75" height="7.561" rx="1.851" transform="translate(224.625 367.625)"/><circle class="e" cx="4.175" cy="4.175" r="4.175" transform="translate(230.825 364.45)"/></g></g></g></svg>