<svg xmlns="http://www.w3.org/2000/svg" width="88" height="88" viewBox="0 0 88 88"><defs><style>.a{fill:#fff;}.b,.c{fill:none;}.b,.d{stroke:#232323;}.b,.c,.d{stroke-linecap:round;stroke-linejoin:round;stroke-width:3px;}.c{stroke:#fff;}.d{fill:#ff7373;}</style></defs><g transform="translate(-41 -506)"><rect class="a" width="88" height="88" transform="translate(41 506)"/><g transform="translate(-12 -1445.996)"><g transform="translate(12.167 1449.159)"><path class="b" d="M84.875,567.44V529.154a5.138,5.138,0,0,0-5.138-5.138h-24.9V562.8H78.694S84.875,562.8,84.875,567.44Z"/><line class="b" x1="19.186" transform="translate(60.261 530.366)"/><line class="b" x1="19.186" transform="translate(60.261 539.105)"/><line class="b" x1="19.186" transform="translate(60.261 547.845)"/><line class="b" x1="19.186" transform="translate(60.261 556.584)"/><path class="b" d="M54.833,568.566h25.5s.785,4.1,4.54,4.1"/><path class="b" d="M84.875,567.44V529.154a5.138,5.138,0,0,1,5.138-5.138h24.9V562.8H91.056S84.875,562.8,84.875,567.44Z"/><line class="b" x2="19.186" transform="translate(90.303 530.366)"/><line class="b" x2="19.186" transform="translate(90.303 539.105)"/><line class="b" x2="19.186" transform="translate(90.303 547.845)"/><line class="b" x2="19.186" transform="translate(90.303 556.584)"/><path class="b" d="M114.917,568.566h-25.5s-.785,4.1-4.54,4.1"/><path class="c" d="M100.783,527.5H91.49v-9.663H78.26V527.5H68.967v13.652H78.26v9.663H91.49v-9.663h9.294Z"/><path class="d" d="M99.213,529.1H90.1v-9.115H79.652V529.1H70.537v10.446h9.115v9.115H90.1v-9.115h9.115Z"/></g></g></g></svg>