<svg xmlns="http://www.w3.org/2000/svg" width="88" height="88" viewBox="0 0 88 88"><defs><style>.a,.e{fill:#fff;}.b,.d{fill:#ff7373;}.b,.c,.e{stroke:#232323;stroke-width:3px;}.b,.c,.d,.e{stroke-linecap:round;stroke-linejoin:round;}.c{fill:none;}.d{stroke:#fff;stroke-width:8px;}</style></defs><g transform="translate(-191 -506)"><rect class="a" width="88" height="88" transform="translate(191 506)"/><g transform="translate(-15.972 -1449.739)"><circle class="b" cx="8.911" cy="8.911" r="8.911" transform="translate(230.354 1996.055)"/><path class="c" d="M250.677,559.587v-7.105l-5.348-.926a18.667,18.667,0,0,0-2.2-5.254l3.109-4.411-5.024-5.024-4.436,3.127a18.663,18.663,0,0,0-5.269-2.159l-.921-5.32h-7.105l-.925,5.348a18.662,18.662,0,0,0-5.255,2.2l-4.41-3.109-5.024,5.024L211,546.413a18.667,18.667,0,0,0-2.16,5.269l-5.319.921v7.105l5.347.925a18.69,18.69,0,0,0,2.2,5.255l-3.109,4.409,5.024,5.024,4.436-3.127a18.673,18.673,0,0,0,5.27,2.16l.92,5.319h7.105l.926-5.348a18.663,18.663,0,0,0,5.254-2.2l4.41,3.109,5.024-5.024-3.127-4.436a18.672,18.672,0,0,0,2.159-5.27Z" transform="translate(12.167 1448.871)"/><circle class="d" cx="6.657" cy="6.657" r="6.657" transform="translate(260.918 1978.442)"/><path class="a" d="M238.969,533.154l-5.556.666,1.715,11.269L242.807,553l6.995,4.713,4.846-4.549-9.227-20.643Z" transform="translate(11.566 1448.871)"/><path class="e" d="M269.8,547.325l2.759-4.534-3.053-2.668a13.967,13.967,0,0,0,.639-4.207l3.7-1.607-1.254-5.157-4.046.273A13.912,13.912,0,0,0,266.016,526l1.479-3.752-4.534-2.759-2.667,3.053a13.942,13.942,0,0,0-4.207-.638l-1.608-3.7-5.156,1.255.272,4.045a13.982,13.982,0,0,0-3.425,2.524l-3.752-1.478-2.759,4.534,3.054,2.667a13.942,13.942,0,0,0-.639,4.207l-3.7,1.607,1.254,5.157,4.046-.272a13.928,13.928,0,0,0,2.523,3.424l-1.478,3.752,4.534,2.759,2.667-3.053a13.944,13.944,0,0,0,4.207.638l1.607,3.7,5.157-1.255-.272-4.045a13.907,13.907,0,0,0,3.424-2.524Z" transform="translate(11.466 1449.159)"/><circle class="b" cx="6.657" cy="6.657" r="6.657" transform="translate(260.918 1978.442)"/></g></g></svg>